<svg width="989" height="316" viewBox="0 0 989 316" fill="none" xmlns="http://www.w3.org/2000/svg">
<g clip-path="url(#clip0_6_83)">
<path d="M263.333 0H52.6667C23.5797 0 0 23.5797 0 52.6667V263.333C0 292.42 23.5797 316 52.6667 316H263.333C292.42 316 316 292.42 316 263.333V52.6667C316 23.5797 292.42 0 263.333 0Z" fill="url(#paint0_linear_6_83)"/>
<path d="M36.8667 52.6667C36.8667 46.8493 41.5826 42.1333 47.4 42.1333H79C84.8176 42.1333 89.5333 46.8493 89.5333 52.6667V84.2667C89.5333 90.0842 84.8176 94.8 79 94.8H47.4C41.5826 94.8 36.8667 90.0842 36.8667 84.2667V52.6667Z" fill="#0075FF"/>
<path fill-rule="evenodd" clip-rule="evenodd" d="M62.5454 78.2595C62.2994 78.4944 62.0071 78.6808 61.6853 78.8078C61.3635 78.9347 61.0191 79 60.6704 79C60.3223 79 59.9773 78.9347 59.6555 78.8078C59.3343 78.6808 59.042 78.4944 58.7955 78.2595L48.1746 68.1285C47.6786 67.6551 47.4 67.0141 47.4 66.3453C47.4 65.6764 47.6786 65.0354 48.1746 64.562L49.2876 63.5018C49.5337 63.2674 49.8259 63.081 50.1476 62.9541C50.4694 62.8271 50.8142 62.7618 51.1624 62.7618C51.5107 62.7618 51.8555 62.8271 52.1772 62.9541C52.4989 63.081 52.791 63.2674 53.0374 63.5018L58.7955 68.9965C59.042 69.2314 59.3343 69.4173 59.6555 69.5448C59.9773 69.6717 60.3223 69.737 60.6704 69.737C61.0191 69.737 61.3635 69.6717 61.6853 69.5448C62.0071 69.4173 62.2994 69.2314 62.5454 68.9965L73.3626 58.6738C73.609 58.4389 73.9013 58.2525 74.2226 58.1256C74.5444 57.9986 74.8894 57.9333 75.2375 57.9333C75.5856 57.9333 75.9306 57.9986 76.2524 58.1256C76.5742 58.2525 76.8665 58.4389 77.1124 58.6738L78.2253 59.7335C78.7214 60.207 79 60.8484 79 61.5168C79 62.1856 78.7214 62.8266 78.2253 63.3001L62.5454 78.2595Z" fill="white"/>
<path d="M79 131.667H47.4C41.5826 131.667 36.8667 136.383 36.8667 142.2V173.8C36.8667 179.617 41.5826 184.333 47.4 184.333H79C84.8174 184.333 89.5333 179.617 89.5333 173.8V142.2C89.5333 136.383 84.8174 131.667 79 131.667Z" fill="white"/>
<path d="M79 221.2H47.4C41.5826 221.2 36.8667 225.916 36.8667 231.733V263.333C36.8667 269.151 41.5826 273.867 47.4 273.867H79C84.8174 273.867 89.5333 269.151 89.5333 263.333V231.733C89.5333 225.916 84.8174 221.2 79 221.2Z" fill="white"/>
<path d="M123.767 42.1333C128.13 42.1333 131.667 45.6703 131.667 50.0333V265.967C131.667 270.33 128.13 273.867 123.767 273.867C119.404 273.867 115.867 270.33 115.867 265.967V50.0333C115.867 45.6703 119.404 42.1333 123.767 42.1333ZM122.018 259.383C120.895 259.383 120.126 260.525 120.552 261.564L122.306 265.838C122.842 267.146 124.691 267.146 125.227 265.838L126.981 261.564C127.407 260.525 126.639 259.383 125.515 259.383H122.018ZM123.767 110.6C121.585 110.6 119.817 112.369 119.817 114.55V201.45C119.817 203.631 121.585 205.4 123.767 205.4C125.948 205.4 127.717 203.631 127.717 201.45V114.55C127.717 112.369 125.948 110.6 123.767 110.6ZM125.227 50.1619C124.691 48.8535 122.842 48.8535 122.306 50.1619L120.552 54.4357C120.126 55.4754 120.895 56.6167 122.018 56.6167H125.515C126.639 56.6167 127.407 55.4754 126.981 54.4357L125.227 50.1619Z" fill="white" fill-opacity="0.8"/>
<path d="M258.067 42.1333C266.793 42.1333 273.867 49.2073 273.867 57.9333V258.067C273.867 266.793 266.793 273.867 258.067 273.867H173.8C165.074 273.867 158 266.793 158 258.067V57.9333C158 49.2073 165.074 42.1333 173.8 42.1333H258.067ZM205.997 170.416V173.584L211.515 174.741V194.147C211.515 197.202 211.213 199.609 210.61 201.363C210.007 203.116 209.013 204.38 207.637 205.153C206.28 205.926 204.385 206.31 201.954 206.311C199.672 206.311 197.831 205.971 196.436 205.292C195.059 204.595 194.04 203.436 193.38 201.815C192.721 200.194 192.393 197.929 192.393 195.026V174.741L197.906 173.584V170.102L181.386 170.416V173.584L186.308 174.741V195.026C186.309 200.55 187.49 204.632 189.847 207.272C192.204 209.911 196.146 211.232 201.671 211.232C207.497 211.232 211.61 209.811 214.005 206.964C216.399 204.097 217.594 199.823 217.594 194.147V174.741L222.517 173.584V170.102L205.997 170.416ZM227.439 170.416V173.584L232.361 174.741V206.027L227.439 207.19V210.667H243.367V207.19L238.445 206.027V174.741L243.367 173.584V170.102L227.439 170.416ZM196.975 106.336C193.035 106.336 189.752 107.299 187.131 109.222C184.529 111.145 183.227 114.024 183.227 117.852C183.228 120.246 183.794 122.209 184.925 123.736C186.074 125.262 187.453 126.433 189.055 127.244C190.677 128.054 192.797 128.923 195.417 129.846C197.416 130.581 198.982 131.211 200.113 131.739C201.263 132.267 202.225 132.958 202.998 133.806C203.77 134.636 204.16 135.674 204.16 136.918C204.16 138.858 203.253 140.377 201.445 141.47C199.654 142.563 197.597 143.11 195.278 143.111C194.166 143.111 193.135 143.009 192.192 142.802C191.251 142.594 190.507 142.374 189.96 142.148C189.415 141.904 189.062 141.746 188.911 141.67L187.754 135.586H183.115V145.744C183.436 145.857 184.174 146.103 185.321 146.479C186.49 146.837 187.95 147.184 189.703 147.523C191.457 147.863 193.241 148.032 195.052 148.032C197.841 148.032 200.378 147.573 202.659 146.649C204.959 145.725 206.789 144.31 208.147 142.406C209.504 140.482 210.183 138.132 210.183 135.36C210.183 133.154 209.616 131.335 208.486 129.902C207.373 128.45 206.016 127.326 204.413 126.534C202.81 125.742 200.754 124.905 198.246 124.019C196.154 123.284 194.524 122.642 193.355 122.095C192.205 121.548 191.242 120.857 190.469 120.027C189.696 119.179 189.307 118.133 189.307 116.89C189.307 115.344 189.979 114.024 191.318 112.93C192.657 111.817 194.562 111.258 197.032 111.258C197.955 111.258 198.881 111.334 199.804 111.485C200.727 111.635 201.483 111.806 202.067 111.994C202.65 112.163 203.017 112.27 203.168 112.307L205.148 118.5H208.913L209.196 108.656C208.857 108.543 208.043 108.309 206.763 107.951C205.481 107.574 203.933 107.216 202.124 106.876C200.315 106.518 198.597 106.337 196.975 106.336ZM227.552 106.902L216.52 107.216V110.384L221.442 111.541V142.827L216.52 143.99V147.467H245.8V137.031H242.035L240.878 142.827H227.552V128.627H240.878V124.019H227.552V111.541H239.998L241.444 116.777H245.203V106.902H227.552Z" fill="white" fill-opacity="0.8"/>
</g>
<path d="M381.232 102.711C381.398 102.822 381.841 103.015 382.56 103.292C383.307 103.569 384.289 103.845 385.507 104.122C386.724 104.371 388.066 104.496 389.533 104.496C392.41 104.496 394.845 103.887 396.837 102.669C398.83 101.452 399.826 99.7642 399.826 97.606C399.826 96.3055 399.383 95.2126 398.498 94.3271C397.64 93.4417 396.533 92.7085 395.177 92.1274C393.849 91.5187 391.912 90.7578 389.367 89.8447C385.631 88.5443 382.546 87.2576 380.111 85.9849C377.676 84.7121 375.56 82.8721 373.761 80.4648C371.99 78.0576 371.105 74.931 371.105 71.085C371.105 67.2943 372.032 64.0431 373.886 61.3315C375.767 58.5923 378.34 56.5309 381.605 55.1475C384.87 53.764 388.564 53.0723 392.687 53.0723C395.509 53.0723 398.304 53.3213 401.071 53.8193C403.865 54.3174 406.162 54.8431 407.96 55.3965C409.787 55.9222 410.935 56.2819 411.405 56.4756L410.949 71.915H403.146L401.029 64.6934C400.808 64.638 400.324 64.5135 399.577 64.3198C398.83 64.1261 397.903 63.9325 396.796 63.7388C395.689 63.5174 394.61 63.4067 393.559 63.4067C390.681 63.4067 388.454 63.974 386.876 65.1084C385.299 66.2428 384.511 67.6955 384.511 69.4663C384.511 71.2925 385.355 72.7313 387.042 73.7827C388.758 74.8065 391.456 75.9686 395.136 77.269C398.871 78.5695 401.942 79.8423 404.35 81.0874C406.785 82.3325 408.86 84.1172 410.575 86.4414C412.318 88.7656 413.19 91.7401 413.19 95.3647C413.19 99.5151 412.194 103.084 410.202 106.073C408.209 109.033 405.484 111.288 402.025 112.838C398.567 114.36 394.638 115.121 390.238 115.121C387.416 115.121 384.594 114.872 381.771 114.374C378.977 113.903 376.653 113.419 374.799 112.921C372.945 112.395 371.769 112.049 371.271 111.883V95.5723H379.945L381.232 102.711ZM433.693 93.8706C433.914 97.2739 434.938 99.9302 436.764 101.839C438.618 103.721 441.025 104.662 443.986 104.662C446.089 104.662 448.192 104.371 450.294 103.79C452.425 103.181 454.182 102.573 455.565 101.964C456.977 101.327 457.876 100.885 458.263 100.636L461.916 107.691C461.916 107.802 460.919 108.508 458.927 109.808C456.963 111.081 454.542 112.243 451.664 113.294C448.814 114.318 445.771 114.83 442.533 114.83C435.339 114.83 429.861 112.838 426.098 108.854C422.335 104.869 420.453 99.2246 420.453 91.9199C420.453 86.9948 421.352 82.6784 423.151 78.9707C424.977 75.2354 427.592 72.3577 430.995 70.3379C434.398 68.2904 438.438 67.2666 443.114 67.2666C449.34 67.2666 454.113 69.0513 457.433 72.6206C460.753 76.1899 462.414 81.0597 462.414 87.23C462.414 88.5858 462.344 89.9001 462.206 91.1729C462.068 92.4456 461.971 93.248 461.916 93.5801L433.693 93.8706ZM442.284 77.4351C439.96 77.4351 438.065 78.2236 436.598 79.8008C435.132 81.3503 434.219 83.3978 433.859 85.9434H449.257C449.257 83.3978 448.69 81.3503 447.555 79.8008C446.421 78.2236 444.664 77.4351 442.284 77.4351ZM494.413 107.193V114H467.145V107.193L473.952 105.077V57.3057L467.145 55.604V48.7974L486.776 48.1333V105.077L494.413 107.193ZM511.056 93.8706C511.278 97.2739 512.301 99.9302 514.127 101.839C515.981 103.721 518.389 104.662 521.349 104.662C523.452 104.662 525.555 104.371 527.658 103.79C529.788 103.181 531.545 102.573 532.929 101.964C534.34 101.327 535.239 100.885 535.626 100.636L539.279 107.691C539.279 107.802 538.283 108.508 536.291 109.808C534.326 111.081 531.905 112.243 529.027 113.294C526.177 114.318 523.134 114.83 519.896 114.83C512.702 114.83 507.224 112.838 503.461 108.854C499.698 104.869 497.816 99.2246 497.816 91.9199C497.816 86.9948 498.716 82.6784 500.514 78.9707C502.34 75.2354 504.955 72.3577 508.358 70.3379C511.762 68.2904 515.801 67.2666 520.478 67.2666C526.703 67.2666 531.476 69.0513 534.796 72.6206C538.117 76.1899 539.777 81.0597 539.777 87.23C539.777 88.5858 539.708 89.9001 539.569 91.1729C539.431 92.4456 539.334 93.248 539.279 93.5801L511.056 93.8706ZM519.647 77.4351C517.323 77.4351 515.428 78.2236 513.961 79.8008C512.495 81.3503 511.582 83.3978 511.222 85.9434H526.62C526.62 83.3978 526.053 81.3503 524.918 79.8008C523.784 78.2236 522.027 77.4351 519.647 77.4351ZM586.967 107.608C585.058 109.324 582.554 110.956 579.455 112.506C576.383 114.055 572.8 114.83 568.705 114.83C561.732 114.83 556.309 112.796 552.436 108.729C548.562 104.662 546.625 98.9894 546.625 91.7124C546.625 84.131 548.673 78.1683 552.768 73.8242C556.89 69.4525 562.632 67.2666 569.992 67.2666C572.15 67.2666 574.322 67.488 576.508 67.9307C578.721 68.3734 580.561 68.8299 582.028 69.3003C583.522 69.743 584.463 70.0474 584.85 70.2134L584.435 84.1587H576.798L575.595 78.1406C575.318 78.0853 574.626 77.9608 573.52 77.7671C572.413 77.5457 571.154 77.4351 569.743 77.4351C566.616 77.4351 564.167 78.5003 562.396 80.6309C560.653 82.7614 559.782 85.888 559.782 90.0107C559.782 94.7145 560.667 98.3392 562.438 100.885C564.236 103.403 566.893 104.662 570.407 104.662C572.62 104.662 574.557 104.33 576.217 103.666C577.905 102.974 579.316 102.268 580.451 101.549C581.585 100.829 582.346 100.359 582.733 100.138L586.967 107.608ZM610.043 114.83C605.45 114.83 602.199 113.405 600.29 110.555C598.408 107.705 597.467 103.61 597.467 98.27V78.7217H589.582V70.4624L597.467 69.3833V57.6377L610.209 55.355V69.3833H622.121V78.7217H610.209V97.4399C610.209 100.262 610.513 102.241 611.122 103.375C611.758 104.509 612.962 105.077 614.733 105.077C615.757 105.077 616.946 104.855 618.302 104.413C619.658 103.942 620.709 103.513 621.457 103.126L624.486 109.601C619.727 113.115 614.913 114.858 610.043 114.83ZM633.576 54.0684C633.576 51.7441 634.295 49.8903 635.734 48.5068C637.173 47.1234 638.888 46.4316 640.88 46.4316C645.639 46.4316 648.019 48.9772 648.019 54.0684C648.019 56.4479 647.286 58.3433 645.819 59.7544C644.381 61.1379 642.734 61.8296 640.88 61.8296C638.556 61.8296 636.758 61.1655 635.485 59.8374C634.212 58.4816 633.576 56.5586 633.576 54.0684ZM653.788 107.193V114H628.305V107.193L635.111 105.077V77.4351L628.305 75.3184V68.5117L647.853 68.0967V105.077L653.788 107.193ZM684.584 68.5117L706.872 68.0967V75.3184L702.016 76.439L688.319 114H674.291L660.885 76.688L656.776 75.3184V68.5117L679.064 68.0967V75.3184L674.291 76.1899L682.011 101.258L689.523 76.439L684.584 75.3184V68.5117ZM721.73 93.8706C721.951 97.2739 722.975 99.9302 724.801 101.839C726.655 103.721 729.062 104.662 732.023 104.662C734.126 104.662 736.229 104.371 738.332 103.79C740.462 103.181 742.219 102.573 743.603 101.964C745.014 101.327 745.913 100.885 746.3 100.636L749.953 107.691C749.953 107.802 748.957 108.508 746.964 109.808C745 111.081 742.579 112.243 739.701 113.294C736.851 114.318 733.808 114.83 730.57 114.83C723.376 114.83 717.898 112.838 714.135 108.854C710.372 104.869 708.49 99.2246 708.49 91.9199C708.49 86.9948 709.389 82.6784 711.188 78.9707C713.014 75.2354 715.629 72.3577 719.032 70.3379C722.436 68.2904 726.475 67.2666 731.151 67.2666C737.377 67.2666 742.15 69.0513 745.47 72.6206C748.791 76.1899 750.451 81.0597 750.451 87.23C750.451 88.5858 750.382 89.9001 750.243 91.1729C750.105 92.4456 750.008 93.248 749.953 93.5801L721.73 93.8706ZM730.321 77.4351C727.997 77.4351 726.102 78.2236 724.635 79.8008C723.169 81.3503 722.256 83.3978 721.896 85.9434H737.294C737.294 83.3978 736.727 81.3503 735.592 79.8008C734.458 78.2236 732.701 77.4351 730.321 77.4351ZM795.939 91.0483C795.939 95.9735 796.755 99.4736 798.388 101.549C800.02 103.624 802.912 104.662 807.062 104.662C809.995 104.662 812.25 104.136 813.827 103.084C815.432 102.033 816.525 100.442 817.106 98.3115C817.715 96.181 818.019 93.3311 818.019 89.7617V64.2783L811.378 61.7051V54.4834L837.567 54.0684V61.7051L831.217 64.2783V89.7617C831.217 98.2562 829.322 104.592 825.531 108.771C821.768 112.949 815.473 115.038 806.647 115.038C798.208 115.038 792.107 113.115 788.344 109.269C784.608 105.395 782.741 99.3215 782.741 91.0483V64.2783L776.474 61.7051V54.4834L802.538 54.0684V61.7051L795.939 64.2783V91.0483ZM843.959 106.778L850.351 104.205V64.2783L843.959 61.7051V54.4834L869.899 54.0684V61.7051L863.507 64.2783V104.205L869.899 106.778V114H843.959V106.778Z" fill="black"/>
<path d="M377.023 176.681L380.526 176.493L388.302 198.231L391.208 198.898V201H381.056V198.898L384.303 198.231L382.97 194.352H373.878L372.511 198.231L375.792 198.898V201H366.171V198.898L369.042 198.231L377.023 176.681ZM378.493 181.022L374.818 191.549H382.03L378.493 181.022ZM412.006 200.829L406.059 201L405.785 199C404.224 200.561 402.39 201.342 400.282 201.342C397.833 201.342 395.993 200.533 394.762 198.915C393.543 197.297 392.934 195.076 392.934 192.25C392.934 189.151 393.714 186.684 395.275 184.85C396.847 183.016 399.16 182.099 402.213 182.099C403.353 182.099 404.458 182.287 405.529 182.663V176.852L402.555 176.151V174.22L409.032 174.049V198.197L412.006 198.898V200.829ZM405.529 185.602C405.46 185.556 405.284 185.482 404.999 185.38C404.726 185.266 404.315 185.158 403.769 185.055C403.222 184.953 402.584 184.901 401.854 184.901C398.357 184.901 396.608 187.237 396.608 191.908C396.608 193.959 396.961 195.583 397.667 196.779C398.385 197.964 399.49 198.556 400.983 198.556C401.872 198.556 402.652 198.362 403.324 197.975C404.008 197.588 404.543 197.166 404.931 196.71C405.329 196.255 405.529 195.993 405.529 195.924V185.602ZM422.653 197.855L426.857 185.072L424.447 184.542V182.628L432.292 182.458V184.542L430.36 184.901L424.413 201H420.568L414.826 185.072L413.065 184.542V182.628L420.944 182.458V184.542L418.5 184.901L422.653 197.855ZM435.077 183.5C435.259 183.432 435.715 183.289 436.444 183.073C437.185 182.845 438.056 182.628 439.059 182.423C440.062 182.207 441.007 182.099 441.896 182.099C444.015 182.099 445.622 182.52 446.715 183.363C447.82 184.206 448.373 185.596 448.373 187.533V198.197L451.176 198.898V200.829L445.741 201L445.006 198.556C444.254 199.308 443.383 199.963 442.392 200.521C441.412 201.068 440.369 201.342 439.264 201.342C437.612 201.342 436.325 200.886 435.402 199.975C434.479 199.052 434.018 197.759 434.018 196.095C434.018 194.158 434.713 192.774 436.103 191.942C437.493 191.099 439.481 190.678 442.067 190.678H444.87V187.875C444.87 186.85 444.585 186.069 444.015 185.534C443.445 184.998 442.619 184.73 441.537 184.73C440.91 184.73 440.335 184.77 439.811 184.85C439.287 184.93 438.871 185.01 438.563 185.089C438.267 185.169 438.085 185.22 438.017 185.243L437.521 187.875H435.248L435.077 183.5ZM442.426 192.951C440.694 192.951 439.452 193.184 438.7 193.651C437.96 194.118 437.589 194.876 437.589 195.924C437.589 196.722 437.817 197.36 438.273 197.838C438.729 198.317 439.355 198.556 440.153 198.556C440.928 198.556 441.662 198.345 442.357 197.924C443.052 197.502 443.645 197.047 444.135 196.557C444.625 196.067 444.87 195.799 444.87 195.753V192.951H442.426ZM459.721 184.936C460.45 184.309 461.401 183.682 462.575 183.056C463.76 182.418 464.979 182.099 466.232 182.099C468.1 182.099 469.502 182.657 470.436 183.773C471.37 184.879 471.837 186.422 471.837 188.405V198.197L474.452 199.069V201H466.061V199.069L468.334 198.197V188.747C468.334 187.482 468.089 186.553 467.599 185.961C467.109 185.368 466.306 185.072 465.189 185.072C464.301 185.072 463.48 185.283 462.729 185.705C461.988 186.126 461.367 186.582 460.866 187.072C460.364 187.562 460.114 187.829 460.114 187.875V198.197L462.387 199.069V201H453.637V199.069L456.61 198.197V185.243L453.637 184.542V182.628L459.413 182.458L459.721 184.936ZM488.979 185.243C488.819 185.198 488.437 185.129 487.833 185.038C487.23 184.947 486.563 184.901 485.834 184.901C484.159 184.901 482.866 185.443 481.955 186.525C481.043 187.607 480.587 189.225 480.587 191.378C480.587 193.714 481.066 195.497 482.023 196.728C482.98 197.947 484.307 198.556 486.005 198.556C486.985 198.556 487.879 198.397 488.688 198.078C489.497 197.759 490.158 197.423 490.67 197.069C491.183 196.705 491.439 196.5 491.439 196.454L492.67 198.556C492.67 198.602 492.305 198.869 491.576 199.359C490.858 199.849 489.975 200.305 488.927 200.727C487.89 201.137 486.802 201.342 485.663 201.342C482.815 201.342 480.644 200.499 479.152 198.812C477.659 197.126 476.913 194.762 476.913 191.72C476.913 189.852 477.283 188.188 478.024 186.73C478.776 185.272 479.835 184.138 481.203 183.329C482.57 182.509 484.171 182.099 486.005 182.099C486.939 182.099 487.851 182.207 488.739 182.423C489.628 182.628 490.351 182.845 490.91 183.073C491.468 183.289 491.821 183.432 491.969 183.5L491.781 188.217H489.508L488.979 185.243ZM498.429 192.25C498.429 194.164 498.896 195.696 499.831 196.847C500.765 197.986 501.99 198.556 503.505 198.556C504.53 198.556 505.482 198.414 506.359 198.129C507.236 197.844 507.96 197.536 508.529 197.206C509.099 196.864 509.384 196.671 509.384 196.625L510.614 198.437C510.614 198.482 510.233 198.767 509.469 199.291C508.717 199.804 507.783 200.277 506.667 200.709C505.561 201.131 504.388 201.342 503.146 201.342C500.389 201.342 498.298 200.51 496.874 198.847C495.461 197.183 494.755 194.87 494.755 191.908C494.755 190.062 495.114 188.393 495.832 186.901C496.561 185.408 497.575 184.235 498.874 183.38C500.184 182.526 501.671 182.099 503.334 182.099C508.233 182.099 510.683 184.839 510.683 190.319C510.683 190.695 510.66 191.071 510.614 191.447C510.569 191.823 510.535 192.068 510.512 192.182L498.429 192.25ZM506.974 189.618C506.974 188.194 506.667 187.043 506.051 186.166C505.447 185.277 504.479 184.833 503.146 184.833C501.79 184.833 500.714 185.289 499.916 186.2C499.13 187.112 498.68 188.251 498.566 189.618H506.974ZM533.241 200.829L527.294 201L527.021 199C525.46 200.561 523.625 201.342 521.518 201.342C519.068 201.342 517.228 200.533 515.998 198.915C514.778 197.297 514.169 195.076 514.169 192.25C514.169 189.151 514.949 186.684 516.51 184.85C518.083 183.016 520.395 182.099 523.449 182.099C524.588 182.099 525.693 182.287 526.764 182.663V176.852L523.791 176.151V174.22L530.268 174.049V198.197L533.241 198.898V200.829ZM526.764 185.602C526.696 185.556 526.519 185.482 526.234 185.38C525.961 185.266 525.551 185.158 525.004 185.055C524.457 184.953 523.819 184.901 523.09 184.901C519.592 184.901 517.843 187.237 517.843 191.908C517.843 193.959 518.196 195.583 518.903 196.779C519.621 197.964 520.726 198.556 522.218 198.556C523.107 198.556 523.887 198.362 524.56 197.975C525.243 197.588 525.779 197.166 526.166 196.71C526.565 196.255 526.764 195.993 526.764 195.924V185.602ZM560.158 179.826C560.055 179.78 559.805 179.706 559.406 179.604C559.018 179.49 558.489 179.381 557.816 179.279C557.156 179.176 556.438 179.125 555.663 179.125C553.305 179.125 551.487 179.985 550.211 181.706C548.947 183.415 548.314 185.881 548.314 189.105C548.314 192.136 548.998 194.409 550.365 195.924C551.732 197.44 553.561 198.197 555.851 198.197C556.945 198.197 558.01 197.986 559.047 197.565C560.084 197.143 560.972 196.688 561.713 196.198C562.465 195.708 562.841 195.44 562.841 195.395L564.242 197.667C564.242 197.736 563.821 198.095 562.978 198.744C562.146 199.382 561.081 199.975 559.782 200.521C558.483 201.068 557.053 201.342 555.492 201.342C551.949 201.342 549.197 200.305 547.238 198.231C545.278 196.158 544.298 193.173 544.298 189.276C544.298 186.622 544.777 184.309 545.734 182.338C546.691 180.355 548.047 178.829 549.801 177.758C551.567 176.687 553.641 176.151 556.022 176.151C557.161 176.151 558.312 176.282 559.474 176.544C560.648 176.795 561.679 177.08 562.567 177.399C563.456 177.707 563.9 177.872 563.9 177.895L563.729 183.842H561.098L560.158 179.826ZM587.348 200.829L581.571 201L581.229 198.556C580.535 199.183 579.589 199.804 578.393 200.419C577.196 201.034 575.983 201.342 574.752 201.342C572.884 201.342 571.483 200.795 570.548 199.701C569.614 198.607 569.147 197.069 569.147 195.087V185.243L566.173 184.542V182.628L572.65 182.458V194.728C572.65 195.97 572.895 196.887 573.385 197.479C573.875 198.072 574.678 198.368 575.795 198.368C576.684 198.368 577.498 198.169 578.239 197.77C578.991 197.36 579.617 196.91 580.119 196.42C580.62 195.93 580.871 195.662 580.871 195.617V185.243L577.897 184.542V182.628L584.374 182.458V198.197L587.348 198.898V200.829ZM592.68 198.402C592.68 198.425 592.97 198.488 593.551 198.59C594.132 198.681 594.822 198.727 595.619 198.727C598.251 198.727 599.573 197.804 599.584 195.958C599.584 195.207 599.259 194.643 598.61 194.267C597.972 193.879 596.975 193.475 595.619 193.053C594.377 192.654 593.369 192.273 592.594 191.908C591.831 191.532 591.176 190.997 590.629 190.302C590.082 189.595 589.809 188.684 589.809 187.567C589.809 185.813 590.401 184.463 591.586 183.517C592.782 182.571 594.326 182.099 596.217 182.099C597.038 182.099 597.886 182.178 598.764 182.338C599.652 182.486 600.404 182.646 601.02 182.816C601.646 182.987 602.039 183.101 602.199 183.158L602.096 187.875H599.823L599.259 185.141C599.191 185.118 599.037 185.072 598.798 185.004C598.57 184.936 598.245 184.873 597.824 184.816C597.402 184.759 596.935 184.73 596.422 184.73C594.349 184.73 593.312 185.511 593.312 187.072C593.312 187.824 593.642 188.405 594.303 188.815C594.975 189.214 595.984 189.635 597.328 190.08C598.536 190.501 599.527 190.894 600.302 191.259C601.076 191.612 601.732 192.13 602.267 192.814C602.803 193.486 603.07 194.335 603.07 195.36C603.07 197.297 602.341 198.778 600.883 199.804C599.424 200.829 597.59 201.342 595.38 201.342C594.423 201.342 593.534 201.285 592.714 201.171C591.894 201.057 591.238 200.943 590.749 200.829C590.259 200.715 589.957 200.63 589.843 200.573V195.395H592.304L592.68 198.402ZM617.426 185.243H612.35V196.488C612.35 197.912 612.931 198.625 614.093 198.625C614.845 198.625 615.757 198.334 616.828 197.753L617.768 199.599C616.184 200.761 614.549 201.342 612.863 201.342C611.678 201.342 610.709 200.954 609.958 200.18C609.217 199.394 608.847 198.095 608.847 196.283V185.243H605.343V182.97L608.847 182.628V178.219L612.35 177.519V182.628H617.426V185.243ZM628.773 182.099C631.36 182.099 633.376 182.936 634.823 184.611C636.27 186.274 636.994 188.53 636.994 191.378C636.994 193.338 636.629 195.076 635.9 196.591C635.182 198.106 634.157 199.28 632.824 200.111C631.502 200.932 629.975 201.342 628.244 201.342C625.589 201.342 623.527 200.544 622.057 198.949C620.587 197.354 619.853 195.007 619.853 191.908C619.853 189.949 620.229 188.228 620.98 186.747C621.744 185.255 622.798 184.11 624.142 183.312C625.486 182.503 627.03 182.099 628.773 182.099ZM628.603 184.901C626.871 184.901 625.589 185.471 624.757 186.61C623.937 187.738 623.527 189.442 623.527 191.72C623.527 196.266 625.162 198.545 628.432 198.556C630.141 198.556 631.382 197.975 632.157 196.813C632.932 195.639 633.319 193.885 633.319 191.549C633.319 187.117 631.747 184.901 628.603 184.901ZM645.897 184.936C646.558 184.309 647.47 183.682 648.632 183.056C649.794 182.418 650.996 182.099 652.238 182.099C654.596 182.099 656.22 183.101 657.108 185.106C657.689 184.525 658.572 183.882 659.757 183.175C660.954 182.458 662.241 182.099 663.62 182.099C665.488 182.099 666.855 182.651 667.721 183.756C668.598 184.85 669.037 186.4 669.037 188.405V198.197L671.669 199.069V201H663.261V199.069L665.534 198.197V188.747C665.534 187.459 665.312 186.525 664.867 185.944C664.423 185.363 663.654 185.072 662.56 185.072C661.671 185.072 660.862 185.283 660.133 185.705C659.416 186.126 658.823 186.582 658.356 187.072C657.889 187.562 657.655 187.829 657.655 187.875V198.197L659.945 199.069V201H651.879V199.069L654.169 198.197V188.747C654.169 187.459 653.947 186.525 653.502 185.944C653.058 185.363 652.289 185.072 651.195 185.072C650.307 185.072 649.498 185.283 648.769 185.705C648.051 186.126 647.458 186.582 646.991 187.072C646.524 187.562 646.291 187.829 646.291 187.875V198.197L648.563 199.069V201H639.813V199.069L642.787 198.197V185.243L639.813 184.542V182.628L645.59 182.458L645.897 184.936ZM686.742 197.497C686.833 197.542 687.044 197.639 687.375 197.787C687.705 197.924 688.155 198.055 688.725 198.18C689.294 198.306 689.915 198.368 690.587 198.368C691.989 198.368 693.231 198.038 694.313 197.377C695.407 196.716 695.954 195.799 695.954 194.625C695.954 193.874 695.72 193.247 695.253 192.746C694.786 192.233 694.205 191.817 693.51 191.498C692.826 191.179 691.881 190.797 690.673 190.353C689.089 189.795 687.807 189.271 686.828 188.781C685.859 188.291 685.028 187.584 684.333 186.662C683.649 185.739 683.307 184.554 683.307 183.107C683.307 180.794 684.093 179.057 685.666 177.895C687.249 176.732 689.232 176.151 691.613 176.151C692.593 176.151 693.629 176.26 694.723 176.476C695.817 176.681 696.751 176.898 697.526 177.125C698.301 177.342 698.791 177.484 698.996 177.553L698.825 183.5H696.552L695.355 179.757C695.264 179.735 695.042 179.672 694.689 179.569C694.336 179.455 693.88 179.353 693.322 179.262C692.764 179.171 692.205 179.125 691.647 179.125C690.154 179.125 689.004 179.461 688.195 180.133C687.386 180.794 686.981 181.592 686.981 182.526C686.981 183.278 687.215 183.91 687.682 184.423C688.149 184.924 688.73 185.34 689.425 185.67C690.132 186.001 691.117 186.388 692.382 186.833C693.897 187.368 695.139 187.875 696.107 188.354C697.076 188.832 697.896 189.51 698.568 190.387C699.252 191.253 699.594 192.353 699.594 193.686C699.594 195.36 699.184 196.779 698.363 197.941C697.543 199.092 696.438 199.946 695.048 200.504C693.669 201.063 692.137 201.342 690.451 201.342C689.357 201.342 688.28 201.239 687.221 201.034C686.161 200.829 685.278 200.618 684.572 200.402C683.877 200.174 683.432 200.026 683.239 199.958V193.822H686.042L686.742 197.497ZM706.754 192.25C706.754 194.164 707.222 195.696 708.156 196.847C709.09 197.986 710.315 198.556 711.83 198.556C712.855 198.556 713.807 198.414 714.684 198.129C715.561 197.844 716.285 197.536 716.854 197.206C717.424 196.864 717.709 196.671 717.709 196.625L718.939 198.437C718.939 198.482 718.558 198.767 717.794 199.291C717.042 199.804 716.108 200.277 714.992 200.709C713.887 201.131 712.713 201.342 711.471 201.342C708.714 201.342 706.623 200.51 705.199 198.847C703.786 197.183 703.08 194.87 703.08 191.908C703.08 190.062 703.439 188.393 704.157 186.901C704.886 185.408 705.9 184.235 707.199 183.38C708.509 182.526 709.996 182.099 711.659 182.099C716.558 182.099 719.008 184.839 719.008 190.319C719.008 190.695 718.985 191.071 718.939 191.447C718.894 191.823 718.86 192.068 718.837 192.182L706.754 192.25ZM715.299 189.618C715.299 188.194 714.992 187.043 714.376 186.166C713.773 185.277 712.804 184.833 711.471 184.833C710.115 184.833 709.039 185.289 708.241 186.2C707.455 187.112 707.005 188.251 706.891 189.618H715.299ZM731.142 201H721.452V199.069L724.425 198.197V176.852L721.452 176.151V174.22L727.997 174.049V198.197L731.142 199.069V201ZM736.388 192.25C736.388 194.164 736.855 195.696 737.79 196.847C738.724 197.986 739.949 198.556 741.464 198.556C742.489 198.556 743.441 198.414 744.318 198.129C745.195 197.844 745.919 197.536 746.488 197.206C747.058 196.864 747.343 196.671 747.343 196.625L748.573 198.437C748.573 198.482 748.192 198.767 747.428 199.291C746.676 199.804 745.742 200.277 744.625 200.709C743.52 201.131 742.347 201.342 741.105 201.342C738.348 201.342 736.257 200.51 734.833 198.847C733.42 197.183 732.714 194.87 732.714 191.908C732.714 190.062 733.073 188.393 733.791 186.901C734.52 185.408 735.534 184.235 736.833 183.38C738.143 182.526 739.63 182.099 741.293 182.099C746.192 182.099 748.642 184.839 748.642 190.319C748.642 190.695 748.619 191.071 748.573 191.447C748.528 191.823 748.493 192.068 748.471 192.182L736.388 192.25ZM744.933 189.618C744.933 188.194 744.625 187.043 744.01 186.166C743.406 185.277 742.438 184.833 741.105 184.833C739.749 184.833 738.673 185.289 737.875 186.2C737.089 187.112 736.639 188.251 736.525 189.618H744.933ZM764.022 185.243C763.863 185.198 763.481 185.129 762.877 185.038C762.274 184.947 761.607 184.901 760.878 184.901C759.203 184.901 757.91 185.443 756.999 186.525C756.087 187.607 755.631 189.225 755.631 191.378C755.631 193.714 756.11 195.497 757.067 196.728C758.024 197.947 759.351 198.556 761.049 198.556C762.029 198.556 762.923 198.397 763.732 198.078C764.541 197.759 765.202 197.423 765.714 197.069C766.227 196.705 766.483 196.5 766.483 196.454L767.714 198.556C767.714 198.602 767.349 198.869 766.62 199.359C765.902 199.849 765.019 200.305 763.971 200.727C762.934 201.137 761.846 201.342 760.707 201.342C757.859 201.342 755.688 200.499 754.196 198.812C752.703 197.126 751.957 194.762 751.957 191.72C751.957 189.852 752.327 188.188 753.068 186.73C753.82 185.272 754.879 184.138 756.247 183.329C757.614 182.509 759.215 182.099 761.049 182.099C761.983 182.099 762.895 182.207 763.783 182.423C764.672 182.628 765.395 182.845 765.954 183.073C766.512 183.289 766.865 183.432 767.013 183.5L766.825 188.217H764.552L764.022 185.243ZM781.181 185.243H776.105V196.488C776.105 197.912 776.686 198.625 777.848 198.625C778.6 198.625 779.512 198.334 780.583 197.753L781.522 199.599C779.939 200.761 778.304 201.342 776.618 201.342C775.433 201.342 774.464 200.954 773.712 200.18C772.972 199.394 772.602 198.095 772.602 196.283V185.243H769.098V182.97L772.602 182.628V178.219L776.105 177.519V182.628H781.181V185.243ZM808.234 179.826C808.131 179.78 807.881 179.706 807.482 179.604C807.095 179.49 806.565 179.381 805.893 179.279C805.232 179.176 804.514 179.125 803.739 179.125C801.381 179.125 799.564 179.985 798.288 181.706C797.023 183.415 796.391 185.881 796.391 189.105C796.391 192.136 797.074 194.409 798.441 195.924C799.809 197.44 801.637 198.197 803.927 198.197C805.021 198.197 806.086 197.986 807.123 197.565C808.16 197.143 809.049 196.688 809.789 196.198C810.541 195.708 810.917 195.44 810.917 195.395L812.318 197.667C812.318 197.736 811.897 198.095 811.054 198.744C810.222 199.382 809.157 199.975 807.858 200.521C806.559 201.068 805.129 201.342 803.568 201.342C800.025 201.342 797.274 200.305 795.314 198.231C793.354 196.158 792.375 193.173 792.375 189.276C792.375 186.622 792.853 184.309 793.81 182.338C794.767 180.355 796.123 178.829 797.877 177.758C799.643 176.687 801.717 176.151 804.098 176.151C805.237 176.151 806.388 176.282 807.55 176.544C808.724 176.795 809.755 177.08 810.644 177.399C811.532 177.707 811.977 177.872 811.977 177.895L811.806 183.842H809.174L808.234 179.826ZM823.871 182.099C826.457 182.099 828.474 182.936 829.921 184.611C831.368 186.274 832.091 188.53 832.091 191.378C832.091 193.338 831.727 195.076 830.998 196.591C830.28 198.106 829.254 199.28 827.921 200.111C826.6 200.932 825.073 201.342 823.341 201.342C820.687 201.342 818.625 200.544 817.155 198.949C815.685 197.354 814.95 195.007 814.95 191.908C814.95 189.949 815.326 188.228 816.078 186.747C816.841 185.255 817.895 184.11 819.24 183.312C820.584 182.503 822.128 182.099 823.871 182.099ZM823.7 184.901C821.968 184.901 820.687 185.471 819.855 186.61C819.035 187.738 818.625 189.442 818.625 191.72C818.625 196.266 820.259 198.545 823.529 198.556C825.238 198.556 826.48 197.975 827.255 196.813C828.03 195.639 828.417 193.885 828.417 191.549C828.417 187.117 826.845 184.901 823.7 184.901ZM840.995 184.936C841.656 184.309 842.567 183.682 843.729 183.056C844.892 182.418 846.094 182.099 847.335 182.099C849.694 182.099 851.317 183.101 852.206 185.106C852.787 184.525 853.67 183.882 854.855 183.175C856.051 182.458 857.339 182.099 858.717 182.099C860.586 182.099 861.953 182.651 862.819 183.756C863.696 184.85 864.135 186.4 864.135 188.405V198.197L866.767 199.069V201H858.358V199.069L860.631 198.197V188.747C860.631 187.459 860.409 186.525 859.965 185.944C859.521 185.363 858.751 185.072 857.658 185.072C856.769 185.072 855.96 185.283 855.231 185.705C854.513 186.126 853.921 186.582 853.454 187.072C852.986 187.562 852.753 187.829 852.753 187.875V198.197L855.043 199.069V201H846.977V199.069L849.267 198.197V188.747C849.267 187.459 849.044 186.525 848.6 185.944C848.156 185.363 847.387 185.072 846.293 185.072C845.404 185.072 844.595 185.283 843.866 185.705C843.148 186.126 842.556 186.582 842.089 187.072C841.622 187.562 841.388 187.829 841.388 187.875V198.197L843.661 199.069V201H834.911V199.069L837.885 198.197V185.243L834.911 184.542V182.628L840.688 182.458L840.995 184.936ZM874.936 184.406C876.588 182.868 878.359 182.099 880.25 182.099C882.723 182.099 884.591 182.919 885.856 184.56C887.132 186.189 887.77 188.405 887.77 191.208C887.77 194.306 886.978 196.773 885.395 198.607C883.811 200.43 881.452 201.342 878.319 201.342C877.317 201.342 876.269 201.182 875.175 200.863V206.417L878.849 207.118V209.049H868.869V207.118L871.671 206.417V185.243L868.698 184.542V182.628L874.645 182.458L874.936 184.406ZM875.175 197.855C875.22 197.901 875.374 197.975 875.636 198.078C875.91 198.18 876.32 198.288 876.867 198.402C877.425 198.505 878.086 198.556 878.849 198.556C882.347 198.556 884.096 196.221 884.096 191.549C884.096 189.521 883.714 187.909 882.951 186.713C882.199 185.505 881.065 184.901 879.55 184.901C878.616 184.901 877.818 185.084 877.157 185.448C876.508 185.801 876.012 186.189 875.67 186.61C875.34 187.032 875.175 187.277 875.175 187.345V197.855ZM899.682 182.099C902.268 182.099 904.285 182.936 905.731 184.611C907.178 186.274 907.902 188.53 907.902 191.378C907.902 193.338 907.537 195.076 906.808 196.591C906.09 198.106 905.065 199.28 903.732 200.111C902.41 200.932 900.884 201.342 899.152 201.342C896.497 201.342 894.435 200.544 892.965 198.949C891.496 197.354 890.761 195.007 890.761 191.908C890.761 189.949 891.137 188.228 891.889 186.747C892.652 185.255 893.706 184.11 895.05 183.312C896.395 182.503 897.938 182.099 899.682 182.099ZM899.511 184.901C897.779 184.901 896.497 185.471 895.666 186.61C894.845 187.738 894.435 189.442 894.435 191.72C894.435 196.266 896.07 198.545 899.34 198.556C901.049 198.556 902.291 197.975 903.065 196.813C903.84 195.639 904.228 193.885 904.228 191.549C904.228 187.117 902.655 184.901 899.511 184.901ZM916.806 184.936C917.535 184.309 918.486 183.682 919.66 183.056C920.845 182.418 922.064 182.099 923.317 182.099C925.185 182.099 926.587 182.657 927.521 183.773C928.455 184.879 928.922 186.422 928.922 188.405V198.197L931.537 199.069V201H923.146V199.069L925.419 198.197V188.747C925.419 187.482 925.174 186.553 924.684 185.961C924.194 185.368 923.391 185.072 922.274 185.072C921.386 185.072 920.565 185.283 919.813 185.705C919.073 186.126 918.452 186.582 917.951 187.072C917.449 187.562 917.199 187.829 917.199 187.875V198.197L919.472 199.069V201H910.722V199.069L913.695 198.197V185.243L910.722 184.542V182.628L916.498 182.458L916.806 184.936ZM937.672 192.25C937.672 194.164 938.139 195.696 939.074 196.847C940.008 197.986 941.233 198.556 942.748 198.556C943.773 198.556 944.725 198.414 945.602 198.129C946.479 197.844 947.203 197.536 947.772 197.206C948.342 196.864 948.627 196.671 948.627 196.625L949.857 198.437C949.857 198.482 949.476 198.767 948.712 199.291C947.96 199.804 947.026 200.277 945.91 200.709C944.805 201.131 943.631 201.342 942.389 201.342C939.632 201.342 937.541 200.51 936.117 198.847C934.704 197.183 933.998 194.87 933.998 191.908C933.998 190.062 934.357 188.393 935.075 186.901C935.804 185.408 936.818 184.235 938.117 183.38C939.427 182.526 940.914 182.099 942.577 182.099C947.476 182.099 949.926 184.839 949.926 190.319C949.926 190.695 949.903 191.071 949.857 191.447C949.812 191.823 949.778 192.068 949.755 192.182L937.672 192.25ZM946.217 189.618C946.217 188.194 945.91 187.043 945.294 186.166C944.691 185.277 943.722 184.833 942.389 184.833C941.033 184.833 939.957 185.289 939.159 186.2C938.373 187.112 937.923 188.251 937.809 189.618H946.217ZM958.983 184.936C959.713 184.309 960.664 183.682 961.837 183.056C963.022 182.418 964.241 182.099 965.495 182.099C967.363 182.099 968.764 182.657 969.699 183.773C970.633 184.879 971.1 186.422 971.1 188.405V198.197L973.715 199.069V201H965.324V199.069L967.597 198.197V188.747C967.597 187.482 967.352 186.553 966.862 185.961C966.372 185.368 965.569 185.072 964.452 185.072C963.563 185.072 962.743 185.283 961.991 185.705C961.251 186.126 960.63 186.582 960.128 187.072C959.627 187.562 959.376 187.829 959.376 187.875V198.197L961.649 199.069V201H952.899V199.069L955.873 198.197V185.243L952.899 184.542V182.628L958.676 182.458L958.983 184.936ZM987.558 185.243H982.482V196.488C982.482 197.912 983.063 198.625 984.225 198.625C984.977 198.625 985.889 198.334 986.959 197.753L987.899 199.599C986.316 200.761 984.681 201.342 982.995 201.342C981.81 201.342 980.841 200.954 980.089 200.18C979.349 199.394 978.979 198.095 978.979 196.283V185.243H975.475V182.97L978.979 182.628V178.219L982.482 177.519V182.628H987.558V185.243Z" fill="#313131"/>
<path d="M370.375 234.296L367.401 233.595V231.681L374.049 231.493H377.724C380.31 231.493 382.298 232.137 383.688 233.424C385.078 234.712 385.773 236.461 385.773 238.671C385.773 241.36 384.947 243.405 383.295 244.806C381.654 246.208 379.33 246.908 376.322 246.908H374.049V253.197L377.023 253.898V256H367.401V253.898L370.375 253.197V234.296ZM376.322 244.105C378.236 244.105 379.678 243.684 380.646 242.841C381.614 241.998 382.099 240.784 382.099 239.201C382.099 237.754 381.7 236.575 380.902 235.663C380.116 234.752 379 234.296 377.553 234.296H374.049V244.105H376.322ZM408.52 255.829L402.743 256L402.401 253.556C401.706 254.183 400.761 254.804 399.564 255.419C398.368 256.034 397.155 256.342 395.924 256.342C394.056 256.342 392.654 255.795 391.72 254.701C390.786 253.607 390.319 252.069 390.319 250.087V240.243L387.345 239.542V237.628L393.822 237.458V249.728C393.822 250.97 394.067 251.887 394.557 252.479C395.047 253.072 395.85 253.368 396.967 253.368C397.855 253.368 398.67 253.169 399.411 252.77C400.163 252.36 400.789 251.91 401.291 251.42C401.792 250.93 402.042 250.662 402.042 250.617V240.243L399.069 239.542V237.628L405.546 237.458V253.197L408.52 253.898V255.829ZM416.894 240.004C417.554 239.286 418.335 238.625 419.235 238.021C420.146 237.406 421.132 237.099 422.191 237.099C422.704 237.099 423.188 237.139 423.644 237.218C424.111 237.298 424.493 237.383 424.789 237.475C425.085 237.554 425.268 237.606 425.336 237.628L425.165 242.704H422.875L422.362 240.072C421.2 240.072 420.198 240.351 419.354 240.91C418.511 241.468 417.822 242.1 417.287 242.807V253.197L420.79 254.069V256H410.81V254.069L413.783 253.197V240.243L410.81 239.542V237.628L416.586 237.458L416.894 240.004ZM430.753 247.25C430.753 249.164 431.221 250.696 432.155 251.847C433.089 252.986 434.314 253.556 435.829 253.556C436.854 253.556 437.806 253.414 438.683 253.129C439.56 252.844 440.284 252.536 440.854 252.206C441.423 251.864 441.708 251.671 441.708 251.625L442.938 253.437C442.938 253.482 442.557 253.767 441.793 254.291C441.042 254.804 440.107 255.277 438.991 255.709C437.886 256.131 436.712 256.342 435.47 256.342C432.713 256.342 430.622 255.51 429.198 253.847C427.785 252.183 427.079 249.87 427.079 246.908C427.079 245.062 427.438 243.393 428.156 241.901C428.885 240.408 429.899 239.235 431.198 238.38C432.508 237.526 433.995 237.099 435.658 237.099C440.557 237.099 443.007 239.839 443.007 245.319C443.007 245.695 442.984 246.071 442.938 246.447C442.893 246.823 442.859 247.068 442.836 247.182L430.753 247.25ZM439.298 244.618C439.298 243.194 438.991 242.043 438.375 241.166C437.772 240.277 436.803 239.833 435.47 239.833C434.114 239.833 433.038 240.289 432.24 241.2C431.454 242.112 431.004 243.251 430.89 244.618H439.298ZM460.832 234.296V254.428C460.832 256.547 460.239 258.21 459.054 259.418C457.881 260.637 456.257 261.247 454.184 261.247C453.808 261.247 453.375 261.224 452.885 261.178C452.395 261.133 452.082 261.098 451.945 261.076L452.252 258.444H454.013C455.106 258.444 455.904 258.165 456.405 257.606C456.907 257.048 457.157 256.222 457.157 255.128V234.296L454.184 233.595V231.681L463.805 231.493V233.595L460.832 234.296ZM467.855 238.5C468.038 238.432 468.493 238.289 469.223 238.073C469.963 237.845 470.835 237.628 471.837 237.423C472.84 237.207 473.786 237.099 474.674 237.099C476.793 237.099 478.4 237.52 479.494 238.363C480.599 239.206 481.151 240.596 481.151 242.533V253.197L483.954 253.898V255.829L478.52 256L477.785 253.556C477.033 254.308 476.161 254.963 475.17 255.521C474.19 256.068 473.148 256.342 472.042 256.342C470.39 256.342 469.103 255.886 468.18 254.975C467.257 254.052 466.796 252.759 466.796 251.095C466.796 249.158 467.491 247.774 468.881 246.942C470.271 246.099 472.259 245.678 474.845 245.678H477.648V242.875C477.648 241.85 477.363 241.069 476.793 240.534C476.224 239.998 475.398 239.73 474.315 239.73C473.689 239.73 473.113 239.77 472.589 239.85C472.065 239.93 471.649 240.01 471.342 240.089C471.046 240.169 470.863 240.22 470.795 240.243L470.299 242.875H468.026L467.855 238.5ZM475.204 247.951C473.472 247.951 472.23 248.184 471.479 248.651C470.738 249.118 470.368 249.876 470.368 250.924C470.368 251.722 470.596 252.36 471.051 252.838C471.507 253.317 472.134 253.556 472.931 253.556C473.706 253.556 474.441 253.345 475.136 252.924C475.831 252.502 476.423 252.047 476.913 251.557C477.403 251.067 477.648 250.799 477.648 250.753V247.951H475.204ZM494.772 252.855L498.976 240.072L496.566 239.542V237.628L504.411 237.458V239.542L502.479 239.901L496.532 256H492.687L486.945 240.072L485.185 239.542V237.628L493.063 237.458V239.542L490.619 239.901L494.772 252.855ZM507.196 238.5C507.379 238.432 507.834 238.289 508.563 238.073C509.304 237.845 510.176 237.628 511.178 237.423C512.181 237.207 513.126 237.099 514.015 237.099C516.134 237.099 517.741 237.52 518.834 238.363C519.94 239.206 520.492 240.596 520.492 242.533V253.197L523.295 253.898V255.829L517.86 256L517.125 253.556C516.374 254.308 515.502 254.963 514.511 255.521C513.531 256.068 512.488 256.342 511.383 256.342C509.731 256.342 508.444 255.886 507.521 254.975C506.598 254.052 506.137 252.759 506.137 251.095C506.137 249.158 506.832 247.774 508.222 246.942C509.612 246.099 511.6 245.678 514.186 245.678H516.989V242.875C516.989 241.85 516.704 241.069 516.134 240.534C515.565 239.998 514.739 239.73 513.656 239.73C513.03 239.73 512.454 239.77 511.93 239.85C511.406 239.93 510.99 240.01 510.683 240.089C510.386 240.169 510.204 240.22 510.136 240.243L509.64 242.875H507.367L507.196 238.5ZM514.545 247.951C512.813 247.951 511.571 248.184 510.819 248.651C510.079 249.118 509.708 249.876 509.708 250.924C509.708 251.722 509.936 252.36 510.392 252.838C510.848 253.317 511.474 253.556 512.272 253.556C513.047 253.556 513.782 253.345 514.477 252.924C515.172 252.502 515.764 252.047 516.254 251.557C516.744 251.067 516.989 250.799 516.989 250.753V247.951H514.545ZM530.302 252.497C530.393 252.542 530.604 252.639 530.934 252.787C531.264 252.924 531.715 253.055 532.284 253.18C532.854 253.306 533.475 253.368 534.147 253.368C535.548 253.368 536.79 253.038 537.873 252.377C538.966 251.716 539.513 250.799 539.513 249.625C539.513 248.874 539.28 248.247 538.812 247.746C538.345 247.233 537.764 246.817 537.069 246.498C536.386 246.179 535.44 245.797 534.232 245.353C532.649 244.795 531.367 244.271 530.387 243.781C529.419 243.291 528.587 242.584 527.892 241.662C527.208 240.739 526.867 239.554 526.867 238.107C526.867 235.794 527.653 234.057 529.225 232.895C530.809 231.732 532.791 231.151 535.172 231.151C536.152 231.151 537.189 231.26 538.283 231.476C539.376 231.681 540.311 231.898 541.085 232.125C541.86 232.342 542.35 232.484 542.555 232.553L542.384 238.5H540.111L538.915 234.757C538.824 234.735 538.602 234.672 538.249 234.569C537.895 234.455 537.44 234.353 536.881 234.262C536.323 234.171 535.765 234.125 535.207 234.125C533.714 234.125 532.563 234.461 531.754 235.133C530.945 235.794 530.541 236.592 530.541 237.526C530.541 238.278 530.775 238.91 531.242 239.423C531.709 239.924 532.29 240.34 532.985 240.67C533.691 241.001 534.677 241.388 535.941 241.833C537.457 242.368 538.699 242.875 539.667 243.354C540.635 243.832 541.456 244.51 542.128 245.387C542.812 246.253 543.153 247.353 543.153 248.686C543.153 250.36 542.743 251.779 541.923 252.941C541.103 254.092 539.997 254.946 538.607 255.504C537.229 256.063 535.696 256.342 534.01 256.342C532.917 256.342 531.84 256.239 530.78 256.034C529.721 255.829 528.838 255.618 528.131 255.402C527.436 255.174 526.992 255.026 526.798 254.958V248.822H529.601L530.302 252.497ZM558.705 240.243C558.546 240.198 558.164 240.129 557.56 240.038C556.956 239.947 556.29 239.901 555.561 239.901C553.886 239.901 552.593 240.443 551.681 241.525C550.77 242.607 550.314 244.225 550.314 246.378C550.314 248.714 550.792 250.497 551.75 251.728C552.707 252.947 554.034 253.556 555.731 253.556C556.711 253.556 557.606 253.397 558.415 253.078C559.223 252.759 559.884 252.423 560.397 252.069C560.91 251.705 561.166 251.5 561.166 251.454L562.396 253.556C562.396 253.602 562.032 253.869 561.303 254.359C560.585 254.849 559.702 255.305 558.654 255.727C557.617 256.137 556.529 256.342 555.39 256.342C552.541 256.342 550.371 255.499 548.878 253.812C547.386 252.126 546.64 249.762 546.64 246.72C546.64 244.852 547.01 243.188 547.75 241.73C548.502 240.272 549.562 239.138 550.929 238.329C552.296 237.509 553.897 237.099 555.731 237.099C556.666 237.099 557.577 237.207 558.466 237.423C559.354 237.628 560.078 237.845 560.636 238.073C561.194 238.289 561.548 238.432 561.696 238.5L561.508 243.217H559.235L558.705 240.243ZM570.565 240.004C571.226 239.286 572.007 238.625 572.907 238.021C573.818 237.406 574.804 237.099 575.863 237.099C576.376 237.099 576.86 237.139 577.316 237.218C577.783 237.298 578.165 237.383 578.461 237.475C578.757 237.554 578.939 237.606 579.008 237.628L578.837 242.704H576.547L576.034 240.072C574.872 240.072 573.869 240.351 573.026 240.91C572.183 241.468 571.494 242.1 570.958 242.807V253.197L574.462 254.069V256H564.481V254.069L567.455 253.197V240.243L564.481 239.542V237.628L570.258 237.458L570.565 240.004ZM583.024 231.681C583.024 230.906 583.246 230.303 583.69 229.87C584.135 229.437 584.67 229.22 585.297 229.22C586.812 229.22 587.57 230.041 587.57 231.681C587.57 232.433 587.336 233.031 586.869 233.476C586.402 233.909 585.878 234.125 585.297 234.125C584.602 234.125 584.049 233.909 583.639 233.476C583.229 233.043 583.024 232.444 583.024 231.681ZM589.843 256H580.751V254.069L583.725 253.197V240.243L580.751 239.542V237.628L587.228 237.458V253.197L589.843 254.069V256ZM598.183 239.406C599.835 237.868 601.606 237.099 603.498 237.099C605.97 237.099 607.838 237.919 609.103 239.56C610.379 241.189 611.017 243.405 611.017 246.208C611.017 249.306 610.225 251.773 608.642 253.607C607.058 255.43 604.7 256.342 601.566 256.342C600.564 256.342 599.516 256.182 598.422 255.863V261.417L602.096 262.118V264.049H592.116V262.118L594.918 261.417V240.243L591.945 239.542V237.628L597.892 237.458L598.183 239.406ZM598.422 252.855C598.467 252.901 598.621 252.975 598.883 253.078C599.157 253.18 599.567 253.288 600.114 253.402C600.672 253.505 601.333 253.556 602.096 253.556C605.594 253.556 607.343 251.221 607.343 246.549C607.343 244.521 606.961 242.909 606.198 241.713C605.446 240.505 604.312 239.901 602.797 239.901C601.863 239.901 601.065 240.084 600.404 240.448C599.755 240.801 599.259 241.189 598.917 241.61C598.587 242.032 598.422 242.277 598.422 242.345V252.855ZM625.39 240.243H620.314V251.488C620.314 252.912 620.895 253.625 622.057 253.625C622.809 253.625 623.721 253.334 624.792 252.753L625.731 254.599C624.148 255.761 622.513 256.342 620.827 256.342C619.642 256.342 618.673 255.954 617.921 255.18C617.181 254.394 616.811 253.095 616.811 251.283V240.243H613.307V237.97L616.811 237.628V233.219L620.314 232.519V237.628H625.39V240.243ZM628.859 253.795C628.859 253.123 629.07 252.565 629.491 252.121C629.913 251.676 630.46 251.454 631.132 251.454C631.804 251.454 632.351 251.659 632.772 252.069C633.205 252.468 633.422 253.123 633.422 254.035C633.422 254.992 633.057 256.125 632.328 257.436C631.61 258.746 630.631 260.062 629.389 261.383L627.816 260.067C627.908 259.953 628.096 259.674 628.38 259.23C628.677 258.786 628.961 258.284 629.235 257.726C629.52 257.179 629.662 256.718 629.662 256.342C629.662 256.114 629.56 255.812 629.354 255.436C629.024 254.832 628.859 254.285 628.859 253.795ZM649.862 253.197H660.714L661.415 249.694H663.688V256H645.146V253.556L659.142 234.296H649.35L648.461 237.799H646.188V231.493H663.876V233.954L649.862 253.197ZM670.353 247.25C670.353 249.164 670.82 250.696 671.754 251.847C672.689 252.986 673.913 253.556 675.429 253.556C676.454 253.556 677.405 253.414 678.283 253.129C679.16 252.844 679.883 252.536 680.453 252.206C681.023 251.864 681.308 251.671 681.308 251.625L682.538 253.437C682.538 253.482 682.156 253.767 681.393 254.291C680.641 254.804 679.707 255.277 678.59 255.709C677.485 256.131 676.312 256.342 675.07 256.342C672.313 256.342 670.222 255.51 668.798 253.847C667.385 252.183 666.679 249.87 666.679 246.908C666.679 245.062 667.038 243.393 667.755 241.901C668.485 240.408 669.499 239.235 670.797 238.38C672.108 237.526 673.594 237.099 675.258 237.099C680.157 237.099 682.606 239.839 682.606 245.319C682.606 245.695 682.584 246.071 682.538 246.447C682.493 246.823 682.458 247.068 682.436 247.182L670.353 247.25ZM678.898 244.618C678.898 243.194 678.59 242.043 677.975 241.166C677.371 240.277 676.403 239.833 675.07 239.833C673.714 239.833 672.637 240.289 671.84 241.2C671.054 242.112 670.604 243.251 670.49 244.618H678.898ZM691.664 240.004C692.325 239.286 693.105 238.625 694.005 238.021C694.917 237.406 695.902 237.099 696.962 237.099C697.475 237.099 697.959 237.139 698.415 237.218C698.882 237.298 699.263 237.383 699.56 237.475C699.856 237.554 700.038 237.606 700.106 237.628L699.936 242.704H697.646L697.133 240.072C695.971 240.072 694.968 240.351 694.125 240.91C693.282 241.468 692.593 242.1 692.057 242.807V253.197L695.561 254.069V256H685.58V254.069L688.554 253.197V240.243L685.58 239.542V237.628L691.356 237.458L691.664 240.004ZM710.771 237.099C713.357 237.099 715.373 237.936 716.82 239.611C718.267 241.274 718.991 243.53 718.991 246.378C718.991 248.338 718.626 250.076 717.897 251.591C717.179 253.106 716.154 254.28 714.821 255.111C713.499 255.932 711.972 256.342 710.241 256.342C707.586 256.342 705.524 255.544 704.054 253.949C702.584 252.354 701.85 250.007 701.85 246.908C701.85 244.949 702.226 243.228 702.978 241.747C703.741 240.255 704.795 239.11 706.139 238.312C707.484 237.503 709.027 237.099 710.771 237.099ZM710.6 239.901C708.868 239.901 707.586 240.471 706.754 241.61C705.934 242.738 705.524 244.442 705.524 246.72C705.524 251.266 707.159 253.545 710.429 253.556C712.138 253.556 713.38 252.975 714.154 251.813C714.929 250.639 715.316 248.885 715.316 246.549C715.316 242.117 713.744 239.901 710.6 239.901ZM733.021 234.296L730.048 233.595V231.681L736.696 231.493H741.071C744.523 231.493 747.223 232.53 749.171 234.604C751.12 236.666 752.094 239.599 752.094 243.405C752.094 245.945 751.621 248.167 750.675 250.07C749.741 251.972 748.397 253.437 746.642 254.462C744.888 255.487 742.86 256 740.558 256H730.048V253.898L733.021 253.197V234.296ZM740.729 253.197C743.019 253.197 744.813 252.4 746.112 250.805C747.423 249.21 748.078 246.8 748.078 243.576C748.078 240.431 747.445 238.101 746.181 236.586C744.927 235.059 743.167 234.296 740.9 234.296H736.696V253.197H740.729ZM759.118 247.25C759.118 249.164 759.585 250.696 760.519 251.847C761.453 252.986 762.678 253.556 764.193 253.556C765.219 253.556 766.17 253.414 767.047 253.129C767.925 252.844 768.648 252.536 769.218 252.206C769.787 251.864 770.072 251.671 770.072 251.625L771.303 253.437C771.303 253.482 770.921 253.767 770.158 254.291C769.406 254.804 768.472 255.277 767.355 255.709C766.25 256.131 765.076 256.342 763.834 256.342C761.077 256.342 758.987 255.51 757.562 253.847C756.15 252.183 755.443 249.87 755.443 246.908C755.443 245.062 755.802 243.393 756.52 241.901C757.249 240.408 758.263 239.235 759.562 238.38C760.872 237.526 762.359 237.099 764.022 237.099C768.922 237.099 771.371 239.839 771.371 245.319C771.371 245.695 771.348 246.071 771.303 246.447C771.257 246.823 771.223 247.068 771.2 247.182L759.118 247.25ZM767.663 244.618C767.663 243.194 767.355 242.043 766.74 241.166C766.136 240.277 765.167 239.833 763.834 239.833C762.479 239.833 761.402 240.289 760.604 241.2C759.818 242.112 759.368 243.251 759.254 244.618H767.663ZM780.053 239.406C781.705 237.868 783.476 237.099 785.368 237.099C787.84 237.099 789.708 237.919 790.973 239.56C792.249 241.189 792.887 243.405 792.887 246.208C792.887 249.306 792.095 251.773 790.512 253.607C788.928 255.43 786.57 256.342 783.437 256.342C782.434 256.342 781.386 256.182 780.292 255.863V261.417L783.966 262.118V264.049H773.986V262.118L776.789 261.417V240.243L773.815 239.542V237.628L779.762 237.458L780.053 239.406ZM780.292 252.855C780.338 252.901 780.491 252.975 780.753 253.078C781.027 253.18 781.437 253.288 781.984 253.402C782.542 253.505 783.203 253.556 783.966 253.556C787.464 253.556 789.213 251.221 789.213 246.549C789.213 244.521 788.831 242.909 788.068 241.713C787.316 240.505 786.182 239.901 784.667 239.901C783.733 239.901 782.935 240.084 782.274 240.448C781.625 240.801 781.129 241.189 780.788 241.61C780.457 242.032 780.292 242.277 780.292 242.345V252.855ZM799.552 247.25C799.552 249.164 800.019 250.696 800.954 251.847C801.888 252.986 803.113 253.556 804.628 253.556C805.653 253.556 806.605 253.414 807.482 253.129C808.359 252.844 809.083 252.536 809.652 252.206C810.222 251.864 810.507 251.671 810.507 251.625L811.737 253.437C811.737 253.482 811.356 253.767 810.592 254.291C809.84 254.804 808.906 255.277 807.79 255.709C806.684 256.131 805.511 256.342 804.269 256.342C801.512 256.342 799.421 255.51 797.997 253.847C796.584 252.183 795.878 249.87 795.878 246.908C795.878 245.062 796.237 243.393 796.955 241.901C797.684 240.408 798.698 239.235 799.997 238.38C801.307 237.526 802.794 237.099 804.457 237.099C809.356 237.099 811.806 239.839 811.806 245.319C811.806 245.695 811.783 246.071 811.737 246.447C811.692 246.823 811.658 247.068 811.635 247.182L799.552 247.25ZM808.097 244.618C808.097 243.194 807.79 242.043 807.174 241.166C806.57 240.277 805.602 239.833 804.269 239.833C802.913 239.833 801.837 240.289 801.039 241.2C800.253 242.112 799.803 243.251 799.689 244.618H808.097ZM820.863 239.936C821.592 239.309 822.544 238.682 823.717 238.056C824.902 237.418 826.121 237.099 827.375 237.099C829.243 237.099 830.644 237.657 831.579 238.773C832.513 239.879 832.98 241.422 832.98 243.405V253.197L835.595 254.069V256H827.204V254.069L829.477 253.197V243.747C829.477 242.482 829.232 241.553 828.742 240.961C828.252 240.368 827.449 240.072 826.332 240.072C825.443 240.072 824.623 240.283 823.871 240.705C823.131 241.126 822.51 241.582 822.008 242.072C821.507 242.562 821.256 242.829 821.256 242.875V253.197L823.529 254.069V256H814.779V254.069L817.753 253.197V240.243L814.779 239.542V237.628L820.556 237.458L820.863 239.936ZM857.299 255.829L851.352 256L851.078 254C849.517 255.561 847.683 256.342 845.575 256.342C843.126 256.342 841.286 255.533 840.055 253.915C838.836 252.297 838.227 250.076 838.227 247.25C838.227 244.151 839.007 241.684 840.568 239.85C842.14 238.016 844.453 237.099 847.506 237.099C848.646 237.099 849.751 237.287 850.822 237.663V231.852L847.848 231.151V229.22L854.325 229.049V253.197L857.299 253.898V255.829ZM850.822 240.602C850.753 240.556 850.577 240.482 850.292 240.38C850.019 240.266 849.608 240.158 849.062 240.055C848.515 239.953 847.877 239.901 847.147 239.901C843.65 239.901 841.901 242.237 841.901 246.908C841.901 248.959 842.254 250.583 842.96 251.779C843.678 252.964 844.783 253.556 846.276 253.556C847.165 253.556 847.945 253.362 848.617 252.975C849.301 252.588 849.836 252.166 850.224 251.71C850.622 251.255 850.822 250.993 850.822 250.924V240.602ZM863.263 247.25C863.263 249.164 863.73 250.696 864.665 251.847C865.599 252.986 866.824 253.556 868.339 253.556C869.364 253.556 870.316 253.414 871.193 253.129C872.07 252.844 872.794 252.536 873.363 252.206C873.933 251.864 874.218 251.671 874.218 251.625L875.448 253.437C875.448 253.482 875.067 253.767 874.303 254.291C873.551 254.804 872.617 255.277 871.5 255.709C870.395 256.131 869.222 256.342 867.98 256.342C865.223 256.342 863.132 255.51 861.708 253.847C860.295 252.183 859.589 249.87 859.589 246.908C859.589 245.062 859.948 243.393 860.666 241.901C861.395 240.408 862.409 239.235 863.708 238.38C865.018 237.526 866.505 237.099 868.168 237.099C873.067 237.099 875.517 239.839 875.517 245.319C875.517 245.695 875.494 246.071 875.448 246.447C875.403 246.823 875.368 247.068 875.346 247.182L863.263 247.25ZM871.808 244.618C871.808 243.194 871.5 242.043 870.885 241.166C870.281 240.277 869.313 239.833 867.98 239.833C866.624 239.833 865.548 240.289 864.75 241.2C863.964 242.112 863.514 243.251 863.4 244.618H871.808ZM884.574 239.936C885.303 239.309 886.255 238.682 887.428 238.056C888.613 237.418 889.832 237.099 891.085 237.099C892.954 237.099 894.355 237.657 895.29 238.773C896.224 239.879 896.691 241.422 896.691 243.405V253.197L899.306 254.069V256H890.915V254.069L893.188 253.197V243.747C893.188 242.482 892.943 241.553 892.453 240.961C891.963 240.368 891.16 240.072 890.043 240.072C889.154 240.072 888.334 240.283 887.582 240.705C886.841 241.126 886.221 241.582 885.719 242.072C885.218 242.562 884.967 242.829 884.967 242.875V253.197L887.24 254.069V256H878.49V254.069L881.464 253.197V240.243L878.49 239.542V237.628L884.267 237.458L884.574 239.936ZM913.832 240.243C913.673 240.198 913.291 240.129 912.687 240.038C912.083 239.947 911.417 239.901 910.688 239.901C909.013 239.901 907.72 240.443 906.808 241.525C905.897 242.607 905.441 244.225 905.441 246.378C905.441 248.714 905.919 250.497 906.876 251.728C907.833 252.947 909.161 253.556 910.858 253.556C911.838 253.556 912.733 253.397 913.542 253.078C914.35 252.759 915.011 252.423 915.524 252.069C916.037 251.705 916.293 251.5 916.293 251.454L917.523 253.556C917.523 253.602 917.159 253.869 916.43 254.359C915.712 254.849 914.829 255.305 913.781 255.727C912.744 256.137 911.656 256.342 910.517 256.342C907.668 256.342 905.498 255.499 904.005 253.812C902.513 252.126 901.767 249.762 901.767 246.72C901.767 244.852 902.137 243.188 902.877 241.73C903.629 240.272 904.689 239.138 906.056 238.329C907.423 237.509 909.024 237.099 910.858 237.099C911.793 237.099 912.704 237.207 913.593 237.423C914.481 237.628 915.205 237.845 915.763 238.073C916.321 238.289 916.675 238.432 916.823 238.5L916.635 243.217H914.362L913.832 240.243ZM921.881 231.681C921.881 230.906 922.104 230.303 922.548 229.87C922.992 229.437 923.528 229.22 924.154 229.22C925.67 229.22 926.427 230.041 926.427 231.681C926.427 232.433 926.194 233.031 925.727 233.476C925.259 233.909 924.735 234.125 924.154 234.125C923.459 234.125 922.907 233.909 922.497 233.476C922.086 233.043 921.881 232.444 921.881 231.681ZM928.7 256H919.608V254.069L922.582 253.197V240.243L919.608 239.542V237.628L926.085 237.458V253.197L928.7 254.069V256ZM935.006 247.25C935.006 249.164 935.473 250.696 936.408 251.847C937.342 252.986 938.567 253.556 940.082 253.556C941.107 253.556 942.059 253.414 942.936 253.129C943.813 252.844 944.537 252.536 945.106 252.206C945.676 251.864 945.961 251.671 945.961 251.625L947.191 253.437C947.191 253.482 946.81 253.767 946.046 254.291C945.294 254.804 944.36 255.277 943.244 255.709C942.139 256.131 940.965 256.342 939.723 256.342C936.966 256.342 934.875 255.51 933.451 253.847C932.038 252.183 931.332 249.87 931.332 246.908C931.332 245.062 931.691 243.393 932.409 241.901C933.138 240.408 934.152 239.235 935.451 238.38C936.761 237.526 938.248 237.099 939.911 237.099C944.81 237.099 947.26 239.839 947.26 245.319C947.26 245.695 947.237 246.071 947.191 246.447C947.146 246.823 947.112 247.068 947.089 247.182L935.006 247.25ZM943.551 244.618C943.551 243.194 943.244 242.043 942.628 241.166C942.025 240.277 941.056 239.833 939.723 239.833C938.367 239.833 937.291 240.289 936.493 241.2C935.707 242.112 935.257 243.251 935.143 244.618H943.551ZM953.275 253.402C953.275 253.425 953.566 253.488 954.147 253.59C954.728 253.681 955.417 253.727 956.215 253.727C958.847 253.727 960.168 252.804 960.18 250.958C960.18 250.207 959.855 249.643 959.206 249.267C958.568 248.879 957.571 248.475 956.215 248.053C954.973 247.654 953.965 247.273 953.19 246.908C952.427 246.532 951.771 245.997 951.225 245.302C950.678 244.595 950.404 243.684 950.404 242.567C950.404 240.813 950.997 239.463 952.182 238.517C953.378 237.571 954.922 237.099 956.813 237.099C957.633 237.099 958.482 237.178 959.359 237.338C960.248 237.486 961 237.646 961.615 237.816C962.242 237.987 962.635 238.101 962.794 238.158L962.692 242.875H960.419L959.855 240.141C959.787 240.118 959.633 240.072 959.394 240.004C959.166 239.936 958.841 239.873 958.419 239.816C957.998 239.759 957.531 239.73 957.018 239.73C954.944 239.73 953.908 240.511 953.908 242.072C953.908 242.824 954.238 243.405 954.899 243.815C955.571 244.214 956.579 244.635 957.924 245.08C959.132 245.501 960.123 245.894 960.897 246.259C961.672 246.612 962.327 247.13 962.863 247.814C963.398 248.486 963.666 249.335 963.666 250.36C963.666 252.297 962.937 253.778 961.479 254.804C960.02 255.829 958.186 256.342 955.976 256.342C955.019 256.342 954.13 256.285 953.31 256.171C952.489 256.057 951.834 255.943 951.344 255.829C950.854 255.715 950.552 255.63 950.438 255.573V250.395H952.899L953.275 253.402Z" fill="#313131"/>
<defs>
<linearGradient id="paint0_linear_6_83" x1="0" y1="158" x2="316" y2="158" gradientUnits="userSpaceOnUse">
<stop stop-color="#004779"/>
<stop offset="1" stop-color="#B90000"/>
</linearGradient>
<clipPath id="clip0_6_83">
<rect width="316" height="316" fill="white"/>
</clipPath>
</defs>
</svg>
