<svg width="60" height="60" viewBox="0 0 60 60" fill="none" xmlns="http://www.w3.org/2000/svg">
<rect width="60" height="60" rx="10" fill="url(#paint0_linear_0_3)"/>
<path d="M7 10C7 8.89543 7.89543 8 9 8H15C16.1046 8 17 8.89543 17 10V16C17 17.1046 16.1046 18 15 18H9C7.89543 18 7 17.1046 7 16V10Z" fill="#0075FF"/>
<path fill-rule="evenodd" clip-rule="evenodd" d="M11.8757 14.8594C11.829 14.904 11.7735 14.9394 11.7124 14.9635C11.6513 14.9876 11.5859 15 11.5197 15C11.4536 15 11.3881 14.9876 11.327 14.9635C11.266 14.9394 11.2105 14.904 11.1637 14.8594L9.14707 12.9358C9.05289 12.8459 9 12.7242 9 12.5972C9 12.4702 9.05289 12.3485 9.14707 12.2586L9.3584 12.0573C9.40513 12.0128 9.46062 11.9774 9.5217 11.9533C9.58279 11.9292 9.64826 11.9168 9.71438 11.9168C9.78051 11.9168 9.84598 11.9292 9.90706 11.9533C9.96815 11.9774 10.0236 12.0128 10.0704 12.0573L11.1637 13.1006C11.2105 13.1452 11.266 13.1805 11.327 13.2047C11.3881 13.2288 11.4536 13.2412 11.5197 13.2412C11.5859 13.2412 11.6513 13.2288 11.7124 13.2047C11.7735 13.1805 11.829 13.1452 11.8757 13.1006L13.9296 11.1406C13.9764 11.096 14.0319 11.0606 14.0929 11.0365C14.154 11.0124 14.2195 11 14.2856 11C14.3517 11 14.4172 11.0124 14.4783 11.0365C14.5394 11.0606 14.5949 11.096 14.6416 11.1406L14.8529 11.3418C14.9471 11.4317 15 11.5535 15 11.6804C15 11.8074 14.9471 11.9291 14.8529 12.019L11.8757 14.8594Z" fill="white"/>
<rect x="7" y="25" width="10" height="10" rx="2" fill="white"/>
<rect x="7" y="42" width="10" height="10" rx="2" fill="white"/>
<path d="M23.5 8C24.3284 8 25 8.67157 25 9.5V50.5C25 51.3284 24.3284 52 23.5 52C22.6716 52 22 51.3284 22 50.5V9.5C22 8.67157 22.6716 8 23.5 8ZM23.168 49.25C22.9547 49.25 22.8088 49.4667 22.8896 49.6641L23.2227 50.4756C23.3244 50.724 23.6756 50.724 23.7773 50.4756L24.1104 49.6641C24.1912 49.4667 24.0453 49.25 23.832 49.25H23.168ZM23.5 21C23.0858 21 22.75 21.3358 22.75 21.75V38.25C22.75 38.6642 23.0858 39 23.5 39C23.9142 39 24.25 38.6642 24.25 38.25V21.75C24.25 21.3358 23.9142 21 23.5 21ZM23.7773 9.52441C23.6756 9.27599 23.3244 9.27599 23.2227 9.52441L22.8896 10.3359C22.8088 10.5333 22.9547 10.75 23.168 10.75H23.832C24.0453 10.75 24.1912 10.5333 24.1104 10.3359L23.7773 9.52441Z" fill="white" fill-opacity="0.8"/>
<path d="M49 8C50.6569 8 52 9.34315 52 11V49C52 50.6569 50.6569 52 49 52H33C31.3431 52 30 50.6569 30 49V11C30 9.34315 31.3431 8 33 8H49ZM39.1133 32.3574V32.959L40.1611 33.1787V36.8633C40.1611 37.4434 40.1038 37.9004 39.9893 38.2334C39.8747 38.5663 39.6861 38.8064 39.4248 38.9531C39.1671 39.0998 38.8073 39.1728 38.3457 39.1729C37.9124 39.1729 37.5628 39.1084 37.2979 38.9795C37.0366 38.8471 36.8431 38.6271 36.7178 38.3193C36.5925 38.0115 36.5303 37.5815 36.5303 37.0303V33.1787L37.5771 32.959V32.2979L34.4404 32.3574V32.959L35.375 33.1787V37.0303C35.3751 38.0792 35.5994 38.8542 36.0469 39.3555C36.4945 39.8566 37.243 40.1074 38.292 40.1074C39.3981 40.1073 40.1791 39.8375 40.6338 39.2969C41.0885 38.7526 41.3154 37.9411 41.3154 36.8633V33.1787L42.25 32.959V32.2979L39.1133 32.3574ZM43.1846 32.3574V32.959L44.1191 33.1787V39.1191L43.1846 39.3398V40H46.209V39.3398L45.2744 39.1191V33.1787L46.209 32.959V32.2979L43.1846 32.3574ZM37.4004 20.1904C36.6522 20.1904 36.0289 20.3732 35.5312 20.7383C35.0371 21.1035 34.79 21.6501 34.79 22.377C34.7901 22.8315 34.8975 23.2042 35.1123 23.4941C35.3306 23.7839 35.5923 24.0063 35.8965 24.1602C36.2044 24.314 36.6071 24.479 37.1045 24.6543C37.484 24.7939 37.7813 24.9134 37.9961 25.0137C38.2145 25.1139 38.3971 25.2451 38.5439 25.4062C38.6906 25.5638 38.7646 25.7609 38.7646 25.9971C38.7645 26.3655 38.5924 26.6538 38.249 26.8613C37.909 27.0689 37.5184 27.1728 37.0781 27.1729C36.8669 27.1729 36.6712 27.1536 36.4922 27.1143C36.3134 27.0749 36.1722 27.0331 36.0684 26.9902C35.9648 26.9438 35.8979 26.9138 35.8691 26.8994L35.6494 25.7441H34.7686V27.6729C34.8297 27.6944 34.9698 27.7411 35.1875 27.8125C35.4094 27.8805 35.6868 27.9463 36.0195 28.0107C36.3525 28.0752 36.6914 28.1074 37.0352 28.1074C37.5648 28.1074 38.0464 28.0201 38.4795 27.8447C38.9162 27.6693 39.2637 27.4006 39.5215 27.0391C39.7793 26.6738 39.9082 26.2275 39.9082 25.7012C39.9082 25.2824 39.8006 24.9371 39.5859 24.665C39.3747 24.3893 39.1169 24.1758 38.8125 24.0254C38.5082 23.875 38.1178 23.7161 37.6416 23.5479C37.2445 23.4083 36.9349 23.2864 36.7129 23.1826C36.4946 23.0788 36.3118 22.9475 36.165 22.79C36.0183 22.629 35.9444 22.4304 35.9443 22.1943C35.9443 21.9007 36.0719 21.6501 36.3262 21.4424C36.5804 21.2311 36.9421 21.125 37.4111 21.125C37.5864 21.125 37.7622 21.1393 37.9375 21.168C38.1127 21.1966 38.2563 21.2289 38.3672 21.2646C38.4779 21.2968 38.5476 21.3171 38.5762 21.3242L38.9521 22.5H39.667L39.7207 20.6309C39.6563 20.6094 39.5019 20.565 39.2588 20.4971C39.0154 20.4255 38.7214 20.3574 38.3779 20.293C38.0344 20.225 37.7082 20.1905 37.4004 20.1904ZM43.2061 20.2979L41.1113 20.3574V20.959L42.0459 21.1787V27.1191L41.1113 27.3398V28H46.6709V26.0186H45.9561L45.7363 27.1191H43.2061V24.4229H45.7363V23.5479H43.2061V21.1787H45.5693L45.8438 22.1729H46.5576V20.2979H43.2061Z" fill="white" fill-opacity="0.8"/>
<defs>
<linearGradient id="paint0_linear_0_3" x1="0" y1="30" x2="60" y2="30" gradientUnits="userSpaceOnUse">
<stop stop-color="#004779"/>
<stop offset="1" stop-color="#B90000"/>
</linearGradient>
</defs>
</svg>
